<svg xmlns="http://www.w3.org/2000/svg" viewBox="0 0 32 32" fill="none">
  <rect width="32" height="32" rx="8" fill="#141210"/>
  <rect x="6" y="6" width="20" height="20" rx="5" fill="url(#f)"/>
  <path d="M16 11.5c-2.2 0-3.6 1.3-3.6 3.2 0 1.8 1.3 2.6 3.6 3.6 2.1 1 3.1 1.7 3.1 2.9 0 1.1-.9 1.9-2.3 1.9-1.3 0-2.3-.6-2.9-1.6l-1.7 1.3c.9 1.4 2.5 2.3 4.6 2.3 2.8 0 4.7-1.6 4.7-4.1 0-2.1-1.5-3-3.9-4.1-2-.9-2.9-1.5-2.9-2.7 0-1 .8-1.7 2-1.7 1.1 0 1.9.5 2.5 1.3l1.6-1.4C19.4 12.3 17.9 11.5 16 11.5z" fill="#141210"/>
  <defs>
    <linearGradient id="f" x1="6" y1="6" x2="26" y2="26" gradientUnits="userSpaceOnUse">
      <stop stop-color="#D4B87A"/><stop offset="1" stop-color="#9A7B45"/>
    </linearGradient>
  </defs>
</svg>
